<svg width="20" height="20" viewBox="0 0 20 20" fill="none" xmlns="http://www.w3.org/2000/svg">
<path fill-rule="evenodd" clip-rule="evenodd" d="M8.125 5.625H5.625C4.24429 5.625 3.125 6.74429 3.125 8.125V14.375C3.125 15.7557 4.24429 16.875 5.625 16.875H11.875C13.2557 16.875 14.375 15.7557 14.375 14.375V8.125C14.375 6.74429 13.2557 5.625 11.875 5.625H9.375L9.375 1.25C9.375 0.904822 9.09518 0.625 8.75 0.625C8.40482 0.625 8.125 0.904822 8.125 1.25V5.625ZM8.125 5.625H9.375V10.3661L10.8081 8.93306C11.0521 8.68898 11.4479 8.68898 11.6919 8.93306C11.936 9.17714 11.936 9.57286 11.6919 9.81694L9.19194 12.3169C8.94786 12.561 8.55213 12.561 8.30806 12.3169L5.80806 9.81694C5.56398 9.57286 5.56398 9.17714 5.80806 8.93306C6.05214 8.68898 6.44786 8.68898 6.69194 8.93306L8.125 10.3661V5.625Z" fill="#A1A1AA"/>
<path d="M5.95947 18.125C6.39173 18.8723 7.19966 19.375 8.12502 19.375H14.375C15.7557 19.375 16.875 18.2557 16.875 16.875V10.625C16.875 9.69966 16.3723 8.89173 15.625 8.45947V14.375C15.625 16.4461 13.9461 18.125 11.875 18.125H5.95947Z" fill="#A1A1AA"/>
</svg>
