<svg width="20" height="20" viewBox="0 0 20 20" fill="none" xmlns="http://www.w3.org/2000/svg">
<path fill-rule="evenodd" clip-rule="evenodd" d="M9.23158 1.875C8.46777 1.875 7.81591 2.42721 7.69034 3.18063L7.54145 4.07394C7.52466 4.1747 7.44618 4.2915 7.29426 4.36456C7.00754 4.50244 6.73306 4.6615 6.47283 4.83967C6.33409 4.93466 6.19382 4.94433 6.09807 4.90846L5.24876 4.59028C4.53349 4.32231 3.72934 4.61074 3.34743 5.27222L2.57911 6.60298C2.19721 7.26446 2.3495 8.10509 2.9392 8.59055L3.63963 9.16717C3.71849 9.23209 3.78024 9.35819 3.76766 9.5256C3.75588 9.6823 3.7499 9.84051 3.7499 10C3.7499 10.1595 3.75589 10.3178 3.76768 10.4746C3.78026 10.642 3.71851 10.7681 3.63965 10.833L2.9392 11.4097C2.3495 11.8951 2.19721 12.7357 2.57911 13.3972L3.34743 14.728C3.72934 15.3895 4.53349 15.6779 5.24876 15.4099L6.09826 15.0917C6.19401 15.0558 6.33427 15.0655 6.47301 15.1605C6.73318 15.3386 7.00761 15.4976 7.29426 15.6354C7.44618 15.7085 7.52466 15.8253 7.54145 15.9261L7.69034 16.8194C7.81591 17.5728 8.46777 18.125 9.23158 18.125H10.7682C11.532 18.125 12.1839 17.5728 12.3095 16.8194L12.4583 15.9261C12.4751 15.8253 12.5536 15.7085 12.7055 15.6354C12.9923 15.4976 13.2667 15.3385 13.527 15.1603C13.6657 15.0653 13.806 15.0557 13.9017 15.0915L14.751 15.4097C15.4663 15.6777 16.2705 15.3893 16.6524 14.7278L17.4207 13.397C17.8026 12.7355 17.6503 11.8949 17.0606 11.4094L16.3602 10.8328C16.2813 10.7679 16.2196 10.6418 16.2321 10.4744C16.2439 10.3177 16.2499 10.1595 16.2499 10C16.2499 9.84045 16.2439 9.68218 16.2321 9.52543C16.2195 9.358 16.2813 9.2319 16.3601 9.16698L17.0606 8.59035C17.6503 8.10489 17.8026 7.26426 17.4207 6.60278L16.6524 5.27202C16.2705 4.61054 15.4663 4.32211 14.751 4.59008L13.9015 4.90833C13.8058 4.9442 13.6655 4.93453 13.5268 4.83955C13.2666 4.66142 12.9922 4.5024 12.7055 4.36456C12.5536 4.2915 12.4751 4.1747 12.4583 4.07394L12.3095 3.18063C12.1839 2.42721 11.532 1.875 10.7682 1.875H9.23158ZM10 13.125C11.7259 13.125 13.125 11.7259 13.125 10C13.125 8.27411 11.7259 6.875 10 6.875C8.27411 6.875 6.875 8.27411 6.875 10C6.875 11.7259 8.27411 13.125 10 13.125Z" fill="#00C16A"/>
</svg>
