<svg width="12" height="14" viewBox="0 0 12 14" fill="none" xmlns="http://www.w3.org/2000/svg">
<path fill-rule="evenodd" clip-rule="evenodd" d="M7.74349 0.0633011C7.94431 0.175263 8.04289 0.409751 7.98239 0.631576L6.65464 5.50002H11.5C11.6991 5.50002 11.8792 5.61814 11.9586 5.80074C12.0379 5.98335 12.0014 6.19562 11.8655 6.34118L4.86554 13.8412C4.70866 14.0093 4.45736 14.0487 4.25654 13.9367C4.05571 13.8248 3.95713 13.5903 4.01763 13.3685L5.34539 8.50002H0.500011C0.300913 8.50002 0.120788 8.38189 0.0414374 8.19929C-0.037913 8.01669 -0.00136517 7.80441 0.134483 7.65886L7.13448 0.158858C7.29137 -0.00923081 7.54266 -0.0486606 7.74349 0.0633011Z" fill="#F97316"/>
</svg>
