<svg width="28" height="28" viewBox="0 0 28 28" fill="none" xmlns="http://www.w3.org/2000/svg">
<g clip-path="url(#clip0_163_303)">
<path fill-rule="evenodd" clip-rule="evenodd" d="M20 19.1667C20.4602 19.1667 20.8333 18.7936 20.8333 18.3333L20.8333 9C20.8333 8.53977 20.4602 8.16667 20 8.16667L8 8.16667C7.53976 8.16667 7.16666 8.53977 7.16666 9L7.16666 18.3333C7.16666 18.7936 7.53976 19.1667 8 19.1667L20 19.1667ZM21.8333 18.3333C21.8333 19.3459 21.0125 20.1667 20 20.1667L8 20.1667C6.98747 20.1667 6.16666 19.3459 6.16666 18.3333L6.16666 9C6.16666 7.98748 6.98747 7.16667 8 7.16667L20 7.16667C21.0125 7.16667 21.8333 7.98748 21.8333 9L21.8333 18.3333Z" fill="#3F3F46"/>
<path fill-rule="evenodd" clip-rule="evenodd" d="M12.5 20.1667C12.2239 20.1667 12 19.9428 12 19.6667L12 7.66667C12 7.39053 12.2239 7.16667 12.5 7.16667C12.7761 7.16667 13 7.39053 13 7.66667L13 19.6667C13 19.9428 12.7761 20.1667 12.5 20.1667Z" fill="#3F3F46"/>
<path fill-rule="evenodd" clip-rule="evenodd" d="M10.6667 16.3333C10.6667 16.6095 10.4748 16.8333 10.2381 16.8333L9.09524 16.8333C8.85855 16.8333 8.66667 16.6095 8.66667 16.3333C8.66667 16.0572 8.85855 15.8333 9.09524 15.8333L10.2381 15.8333C10.4748 15.8333 10.6667 16.0572 10.6667 16.3333Z" fill="#3F3F46"/>
<path fill-rule="evenodd" clip-rule="evenodd" d="M10.6667 13.6667C10.6667 13.9428 10.4748 14.1667 10.2381 14.1667L9.09524 14.1667C8.85855 14.1667 8.66667 13.9428 8.66667 13.6667C8.66667 13.3905 8.85855 13.1667 9.09524 13.1667L10.2381 13.1667C10.4748 13.1667 10.6667 13.3905 10.6667 13.6667Z" fill="#3F3F46"/>
<path fill-rule="evenodd" clip-rule="evenodd" d="M10.6667 11C10.6667 11.2761 10.4748 11.5 10.2381 11.5L9.09524 11.5C8.85855 11.5 8.66667 11.2761 8.66667 11C8.66667 10.7239 8.85855 10.5 9.09524 10.5L10.2381 10.5C10.4748 10.5 10.6667 10.7239 10.6667 11Z" fill="#3F3F46"/>
</g>
<defs>
<clipPath id="clip0_163_303">
<rect width="16" height="16" fill="white" transform="translate(6 6)"/>
</clipPath>
</defs>
</svg>
