<svg width="20" height="20" viewBox="0 0 20 20" fill="none" xmlns="http://www.w3.org/2000/svg">
<path fill-rule="evenodd" clip-rule="evenodd" d="M5.5 7.8C6.77025 7.8 7.8 6.77025 7.8 5.5C7.8 4.22975 6.77025 3.2 5.5 3.2C4.22974 3.2 3.2 4.22974 3.2 5.5C3.2 6.77025 4.22975 7.8 5.5 7.8ZM9 5.5C9 7.433 7.433 9 5.5 9C3.567 9 2 7.433 2 5.5C2 3.567 3.567 2 5.5 2C7.433 2 9 3.567 9 5.5ZM16.8 3.2H12.2V7.8H16.8V3.2ZM16.8 2H18V3.2V7.8V9H16.8H12.2H11V7.8V3.2V2H12.2H16.8ZM6.79922 11C6.79922 10.6686 6.53059 10.4 6.19922 10.4C5.86785 10.4 5.59922 10.6686 5.59922 11V13.6012H3C2.66863 13.6012 2.4 13.8698 2.4 14.2012C2.4 14.5325 2.66863 14.8012 3 14.8012H5.59922V17.4C5.59922 17.7314 5.86785 18 6.19922 18C6.53059 18 6.79922 17.7314 6.79922 17.4V14.8012H9.4C9.73137 14.8012 10 14.5325 10 14.2012C10 13.8698 9.73137 13.6012 9.4 13.6012H6.79922V11ZM13.8292 12.3416L14.5 11L15.1708 12.3416L17.4 16.8L18 18H16.6584H12.3416H11L11.6 16.8L13.8292 12.3416ZM12.9416 16.8L14.5 13.6833L16.0584 16.8H12.9416Z" fill="currentColor"/>
</svg>
